<?xml version="1.0" encoding="utf-8"?>
<!-- Generator: Adobe Illustrator 26.2.1, SVG Export Plug-In . SVG Version: 6.00 Build 0)  -->
<svg version="1.1" id="Layer_1" xmlns="http://www.w3.org/2000/svg" xmlns:xlink="http://www.w3.org/1999/xlink" x="0px" y="0px"
	 viewBox="0 0 2201.5 752" style="enable-background:new 0 0 2201.5 752;" xml:space="preserve">
<style type="text/css">
	.st0{fill:#27DCE0;}
	.st1{fill:#FFD630;}
	.st2{fill:url(#SVGID_1_);}
	.st3{fill:#FFFFFF;}
</style>
<polygon class="st0" points="230.3,357.3 230.3,357.3 230.3,357.3 "/>
<path class="st1" d="M247.9,391.3L247.9,391.3c0-7.7-3.7-13.4-11.9-18.3l-8.6-5.1c-2.9-1.7-4.5-3.6-4.5-5.4c0-3.3,2.7-5.2,7.3-5.2
	c0,0,0,0,0,0h0c0,0,0,0,0,0c4.9,0.3,9.6,1.9,13.6,4.7l0.9,0.7v-15.9h-0.4c-4.5-2-9.3-3-14.2-3c-17,0-23,10-23,19.4
	c-0.1,3.8,0.9,7.6,3,10.8c2,3.2,5,5.8,8.5,7.4l8.8,5.2c3.3,1.9,4.7,3.7,4.7,5.7c0,3.3-2.8,5.4-7.4,5.4v0c-5.6-0.2-10.9-2.1-15.3-5.4
	l-0.9-0.8V408h0.3c5.2,2.2,10.9,3.3,16.5,3.4C242.1,411.3,247.9,400.5,247.9,391.3z"/>
<polygon class="st1" points="248.6,344.3 272.9,410.2 288.8,410.2 313.2,344.6 296.8,344.6 280.9,392.1 265.1,344.8 265.1,344.3 "/>
<linearGradient id="SVGID_1_" gradientUnits="userSpaceOnUse" x1="119.5571" y1="625.7141" x2="375.8071" y2="369.4641">
	<stop  offset="0.5447" style="stop-color:#857BFE"/>
	<stop  offset="1" style="stop-color:#BD34FE"/>
</linearGradient>
<polygon class="st2" points="472.3,247.8 445.8,221.3 241.3,221.3 241.3,308 265,308 265,245 436.3,245 475.2,283.9 475.2,505.5 
	265,505.5 265,449.9 241.3,449.9 241.3,529.2 498.7,529.2 498.7,274 "/>
<path class="st1" d="M363.8,362.3l0.9,0.5l0-15.9h-0.4c-5.6-2.1-11.6-3.2-17.7-3.1c-9-0.2-17.8,3.3-24.2,9.7
	c-6.4,6.4-9.9,15.1-9.7,24.2c-0.4,8.9,2.9,17.5,9.1,23.9c6.2,6.4,14.7,10,23.6,9.9c22.2,0,32.1-16.3,32.1-32.4
	c0-3.2-0.3-6.3-0.9-9.5v-0.5l-31.7,0v13.4h16.7v0.7h0c-0.3,3.9-2.2,7.5-5.1,10.1c-3,2.5-6.9,3.8-10.8,3.4c-4.9,0-9.6-2.1-13-5.7
	c-3.4-3.6-5.2-8.4-5-13.3c-0.3-5.2,1.6-10.2,5.2-14c3.6-3.7,8.6-5.8,13.8-5.6l0,0l0,0C352.6,358.1,358.5,359.6,363.8,362.3z"/>
<g>
	<path class="st3" d="M616.3,411.7l-23.9-63.6h14l17.3,47.6l16.9-47.6h14.2l-24,63.6H616.3z"/>
	<path class="st3" d="M677.4,337.2c-2.5,0-4.5-0.8-6.1-2.5c-1.6-1.7-2.4-3.6-2.4-5.9c0-2.3,0.8-4.3,2.4-5.9c1.6-1.6,3.6-2.5,6.1-2.5
		c2.5,0,4.5,0.8,6.2,2.5c1.6,1.6,2.5,3.6,2.5,5.9c0,2.3-0.8,4.3-2.5,5.9C681.9,336.3,679.8,337.2,677.4,337.2z M670.6,411.7v-63.6
		h13.7v63.6H670.6z"/>
	<path class="st3" d="M732.1,412.9c-5,0-9.1-0.9-12.1-2.8c-3-1.8-5.2-4.3-6.5-7.4c-1.3-3.1-2-6.4-2-10v-33.6h-11.2v-11h11.2v-15.8
		h13.7v15.8H740v11h-14.9v33.4c0,6,3.3,9,10,9c1.7,0,4-0.2,6.8-0.7v11.2C738,412.6,734.7,412.9,732.1,412.9z"/>
	<path class="st3" d="M786.3,412.9c-5.4,0-10-0.9-13.9-2.8c-3.9-1.9-7.1-4.4-9.6-7.6c-2.5-3.2-4.4-6.7-5.6-10.6
		c-1.2-3.9-1.9-7.9-1.9-12c0-4,0.6-8,1.8-11.9c1.2-3.9,3-7.5,5.5-10.7c2.5-3.2,5.6-5.7,9.5-7.6c3.8-1.9,8.4-2.8,13.6-2.8
		c5.6,0,10.5,1.3,14.8,3.8c4.3,2.5,7.6,6.2,10.1,11.2c2.4,4.9,3.7,11,3.7,18.3v3.7h-45.1c0.3,4.9,2,9.1,4.9,12.6
		c3,3.5,7,5.3,12.2,5.3c3,0,5.4-0.5,7.3-1.5c1.9-1,3.4-2.1,4.4-3.4c1-1.3,2-2.9,2.9-4.8h12.7c-0.8,2.8-1.7,5.2-2.8,7.3
		c-1.1,2.1-2.6,4.2-4.6,6.2c-2,2.1-4.6,3.8-7.9,5.2C795,412.2,791,412.9,786.3,412.9z M769.3,374.2h31.8c-0.3-5.6-2-9.7-5-12.4
		c-3-2.6-6.5-4-10.5-4c-4.5,0-8.2,1.5-11.2,4.4C771.5,365.2,769.8,369.2,769.3,374.2z"/>
	<path class="st3" d="M837.6,379.8v-11.2h44.8v11.2H837.6z"/>
	<path class="st3" d="M931.3,412.9c-5,0-9.2-0.7-12.4-2.1c-3.2-1.4-5.8-3.1-7.7-5.2s-3.3-4.1-4.3-6.2c-0.9-2.1-1.6-4.5-2.1-7.3h13.3
		c0.6,2,1.3,3.6,2.2,4.9c0.9,1.3,2.2,2.4,4.1,3.4c1.8,1,4.3,1.5,7.3,1.5c3.7,0,6.4-0.8,8.2-2.5c1.8-1.7,2.7-3.6,2.7-5.8
		c0-2.1-0.8-3.7-2.3-4.9c-1.5-1.2-3.7-2.1-6.5-2.8l-8.6-1.9c-3.4-0.8-6.5-1.9-9.4-3.3c-2.9-1.4-5.3-3.3-7.1-5.6
		c-1.8-2.4-2.7-5.4-2.7-9.2c0-5.5,2.1-10.1,6.2-13.7c4.2-3.6,9.8-5.4,16.8-5.4c4.6,0,8.3,0.6,11.3,1.9c3,1.3,5.4,2.9,7.1,4.7
		c1.8,1.9,3.1,3.8,4,5.6c0.9,1.9,1.6,4.1,2.2,6.5h-12.8c-0.5-1.6-1.1-2.9-1.9-4c-0.8-1.1-2-2-3.5-2.9c-1.6-0.8-3.7-1.3-6.3-1.3
		c-3.6,0-6.2,0.8-7.8,2.4c-1.6,1.6-2.4,3.3-2.4,5.2c0,1.9,0.8,3.4,2.3,4.5c1.6,1.1,3.6,1.9,6.2,2.5l8.5,1.9c5.7,1.3,10.4,3.4,14,6.3
		c3.7,2.9,5.5,7.1,5.5,12.7c0,3.7-0.9,7-2.8,10c-1.9,3-4.6,5.4-8.2,7.2C940.8,412,936.4,412.9,931.3,412.9z"/>
	<path class="st3" d="M988.6,411.7l-23.9-63.6h14l17.3,47.6l16.9-47.6h14.2l-24,63.6H988.6z"/>
	<path class="st3" d="M1069.9,437c-5.5,0-10.1-0.7-13.7-2.2c-3.6-1.4-6.5-3.2-8.6-5.3c-2.2-2.1-3.8-4.2-4.8-6.4
		c-1-2.1-1.9-4.6-2.5-7.5h13.6c0.6,2,1.5,3.7,2.6,5c1.1,1.3,2.7,2.5,4.9,3.5c2.2,1,5,1.5,8.5,1.5c4.2,0,7.5-0.8,10-2.5
		c2.5-1.6,4.3-3.8,5.4-6.5c1.1-2.7,1.6-5.6,1.6-8.7v-7.2h-0.6c-0.9,1.4-2.1,2.9-3.8,4.5c-1.6,1.6-3.8,3.1-6.5,4.3
		c-2.7,1.2-6,1.8-9.8,1.8c-4.8,0-9-0.9-12.5-2.8c-3.6-1.8-6.5-4.3-8.9-7.4c-2.4-3.1-4.1-6.5-5.3-10.4c-1.2-3.8-1.8-7.8-1.8-11.8
		c0-4,0.6-7.9,1.8-11.7c1.2-3.8,3-7.2,5.3-10.3c2.4-3.1,5.3-5.5,8.9-7.4c3.6-1.8,7.7-2.8,12.5-2.8c3.8,0,7.1,0.6,9.8,1.7
		c2.7,1.2,4.9,2.6,6.6,4.2c1.7,1.6,2.9,3.2,3.7,4.6h0.6v-9.4h13.7v59.8c0,5.7-1.2,10.7-3.5,15.1c-2.3,4.4-5.8,7.8-10.3,10.3
		C1082.1,435.8,1076.5,437,1069.9,437z M1069.2,400c3.9,0,7.2-1,9.8-3.1c2.6-2,4.6-4.7,5.9-7.9c1.3-3.2,1.9-6.6,1.9-10.1
		c0-3.5-0.6-6.9-1.9-10.1c-1.3-3.2-3.2-5.8-5.9-7.8c-2.6-2-5.9-3-9.8-3c-4,0-7.3,1-10,3c-2.6,2-4.6,4.6-5.9,7.8
		c-1.3,3.2-1.9,6.6-1.9,10.1c0,3.5,0.6,6.9,1.9,10.1c1.3,3.2,3.2,5.8,5.9,7.9C1061.8,399,1065.2,400,1069.2,400z"/>
	<path class="st3" d="M1124.8,379.8v-11.2h44.8v11.2H1124.8z"/>
	<path class="st3" d="M1194.1,411.7v-63.6h13.7v8.4h0.5c1.2-2.5,3.1-4.7,5.7-6.7c2.6-2,6.4-2.9,11.3-2.9c1.5,0,3.4,0.2,5.5,0.5v13.2
		c-2.4-0.3-4.4-0.5-5.9-0.5c-5.6,0-9.9,1.6-12.8,4.7c-2.9,3.2-4.4,8.3-4.4,15.3v31.6H1194.1z"/>
	<path class="st3" d="M1270.8,412.9c-5.4,0-10-0.9-13.9-2.8c-3.9-1.9-7.1-4.4-9.6-7.6c-2.5-3.2-4.4-6.7-5.6-10.6
		c-1.2-3.9-1.9-7.9-1.9-12c0-4,0.6-8,1.8-11.9c1.2-3.9,3-7.5,5.5-10.7c2.5-3.2,5.6-5.7,9.5-7.6c3.8-1.9,8.4-2.8,13.6-2.8
		c5.6,0,10.5,1.3,14.8,3.8c4.3,2.5,7.6,6.2,10.1,11.2c2.4,4.9,3.7,11,3.7,18.3v3.7h-45.1c0.3,4.9,2,9.1,4.9,12.6
		c3,3.5,7,5.3,12.2,5.3c3,0,5.4-0.5,7.3-1.5c1.9-1,3.4-2.1,4.4-3.4c1-1.3,2-2.9,2.9-4.8h12.7c-0.8,2.8-1.7,5.2-2.8,7.3
		c-1.1,2.1-2.6,4.2-4.6,6.2c-2,2.1-4.6,3.8-7.9,5.2C1279.5,412.2,1275.5,412.9,1270.8,412.9z M1253.7,374.2h31.8
		c-0.3-5.6-2-9.7-5-12.4c-3-2.6-6.5-4-10.5-4c-4.5,0-8.2,1.5-11.2,4.4C1255.9,365.2,1254.2,369.2,1253.7,374.2z"/>
	<path class="st3" d="M1342.8,346.9c4,0,7.3,0.6,10,1.9c2.7,1.3,4.8,2.8,6.4,4.4c1.6,1.7,2.8,3.1,3.5,4.3h0.7v-9.5h13.7v63.6h-13.7
		v-9.5h-0.7c-0.7,1.2-1.9,2.6-3.5,4.3c-1.6,1.7-3.7,3.2-6.4,4.4c-2.7,1.3-6,1.9-10,1.9c-4.8,0-9-0.9-12.5-2.8
		c-3.6-1.9-6.5-4.4-8.9-7.6c-2.4-3.2-4.2-6.7-5.3-10.6c-1.2-3.9-1.7-7.9-1.7-12c0-4.1,0.6-8.1,1.7-12c1.2-3.9,2.9-7.5,5.3-10.6
		c2.4-3.2,5.4-5.7,8.9-7.6C1333.8,347.8,1338,346.9,1342.8,346.9z M1345.8,358.3c-3.9,0-7.2,1.1-9.8,3.2c-2.6,2.1-4.6,4.8-5.9,8.1
		c-1.3,3.3-2,6.7-2,10.3s0.7,7,2,10.3c1.3,3.3,3.3,6,5.9,8.1c2.6,2.1,5.9,3.2,9.8,3.2c3.9,0,7.2-1.1,9.8-3.2
		c2.6-2.1,4.6-4.8,5.9-8.1c1.3-3.3,2-6.7,2-10.3s-0.7-7-2-10.3c-1.3-3.3-3.3-6-5.9-8.1C1352.9,359.3,1349.7,358.3,1345.8,358.3z"/>
	<path class="st3" d="M1426.4,412.9c-5.4,0-10-0.9-14-2.8c-4-1.9-7.3-4.4-10-7.6c-2.6-3.2-4.6-6.7-5.9-10.6c-1.3-3.9-2-7.9-2-12
		c0-4.1,0.7-8.1,2-12c1.3-3.9,3.3-7.5,5.9-10.6c2.6-3.2,6-5.7,10-7.6c4-1.9,8.7-2.8,14-2.8c5.3,0,9.7,0.8,13.1,2.3
		c3.5,1.6,6.3,3.5,8.3,5.8c2.1,2.3,3.6,4.6,4.7,7c1,2.3,1.8,5.1,2.4,8.3h-13c-0.7-2.4-1.6-4.4-2.6-6c-1-1.6-2.6-3-4.6-4.2
		c-2-1.2-4.8-1.8-8.2-1.8c-4.1,0-7.5,1-10.2,3.1c-2.7,2-4.8,4.7-6.2,8c-1.4,3.3-2.1,6.8-2.1,10.6c0,3.8,0.7,7.3,2.1,10.6
		c1.4,3.3,3.5,5.9,6.2,8c2.7,2,6.1,3.1,10.2,3.1c3.4,0,6.2-0.6,8.2-1.8s3.6-2.6,4.6-4.2c1-1.6,1.9-3.6,2.6-6h13
		c-0.6,3.2-1.4,6-2.4,8.3c-1,2.3-2.6,4.6-4.7,7c-2.1,2.3-4.9,4.3-8.3,5.8C1436,412.1,1431.7,412.9,1426.4,412.9z"/>
	<path class="st3" d="M1499.9,412.9c-5,0-9.1-0.9-12.1-2.8c-3-1.8-5.2-4.3-6.5-7.4c-1.3-3.1-2-6.4-2-10v-33.6h-11.2v-11h11.2v-15.8
		h13.7v15.8h14.9v11H1493v33.4c0,6,3.3,9,10,9c1.7,0,4-0.2,6.8-0.7v11.2C1505.9,412.6,1502.6,412.9,1499.9,412.9z"/>
	<path class="st3" d="M1532.3,379.8v-11.2h44.8v11.2H1532.3z"/>
	<path class="st3" d="M1602.8,411.7l0.1-91.2h13.6v91.2H1602.8z"/>
	<path class="st3" d="M1666.6,412.9c-7,0-12.8-1.6-17.6-4.7c-4.8-3.1-8.4-7.2-10.8-12.2c-2.4-5-3.7-10.4-3.7-16.1
		c0-5.7,1.2-11,3.7-16.1c2.4-5,6-9.1,10.8-12.2c4.8-3.1,10.6-4.7,17.6-4.7c6.9,0,12.7,1.6,17.5,4.7c4.8,3.1,8.4,7.2,10.8,12.2
		c2.4,5,3.7,10.4,3.7,16.1c0,5.7-1.2,11-3.7,16.1c-2.4,5-6,9.1-10.8,12.2C1679.3,411.3,1673.5,412.9,1666.6,412.9z M1666.6,401.2
		c3.9,0,7.2-1,9.9-3c2.7-2,4.7-4.6,6.1-7.9c1.4-3.3,2.1-6.8,2.1-10.4c0-3.8-0.7-7.3-2.1-10.5c-1.4-3.2-3.4-5.9-6.1-7.9
		c-2.7-2-6-3-9.9-3c-3.9,0-7.2,1-10,3c-2.7,2-4.8,4.6-6.1,7.9c-1.4,3.2-2,6.7-2,10.5c0,3.7,0.7,7.2,2,10.4c1.4,3.3,3.4,5.9,6.1,7.9
		C1659.4,400.2,1662.7,401.2,1666.6,401.2z"/>
	<path class="st3" d="M1742.6,346.9c4,0,7.3,0.6,10,1.9c2.7,1.3,4.8,2.8,6.4,4.4c1.6,1.7,2.8,3.1,3.5,4.3h0.7v-9.5h13.7v63.6h-13.7
		v-9.5h-0.7c-0.7,1.2-1.9,2.6-3.5,4.3c-1.6,1.7-3.7,3.2-6.4,4.4c-2.7,1.3-6,1.9-10,1.9c-4.8,0-9-0.9-12.5-2.8
		c-3.6-1.9-6.5-4.4-8.9-7.6c-2.4-3.2-4.2-6.7-5.3-10.6c-1.2-3.9-1.7-7.9-1.7-12c0-4.1,0.6-8.1,1.7-12c1.2-3.9,2.9-7.5,5.3-10.6
		c2.4-3.2,5.4-5.7,8.9-7.6C1733.6,347.8,1737.8,346.9,1742.6,346.9z M1745.6,358.3c-3.9,0-7.2,1.1-9.8,3.2c-2.6,2.1-4.6,4.8-5.9,8.1
		c-1.3,3.3-2,6.7-2,10.3s0.7,7,2,10.3c1.3,3.3,3.3,6,5.9,8.1c2.6,2.1,5.9,3.2,9.8,3.2c3.9,0,7.2-1.1,9.8-3.2
		c2.6-2.1,4.6-4.8,5.9-8.1c1.3-3.3,2-6.7,2-10.3s-0.7-7-2-10.3c-1.3-3.3-3.3-6-5.9-8.1C1752.8,359.3,1749.5,358.3,1745.6,358.3z"/>
	<path class="st3" d="M1822.9,412.9c-4.8,0-9-0.9-12.5-2.8c-3.6-1.9-6.5-4.4-8.9-7.6c-2.4-3.2-4.2-6.7-5.3-10.6
		c-1.2-3.9-1.7-7.9-1.7-12c0-4.1,0.6-8.1,1.7-12c1.2-3.9,2.9-7.5,5.3-10.6c2.4-3.2,5.4-5.7,8.9-7.6c3.6-1.9,7.7-2.8,12.5-2.8
		c4,0,7.3,0.6,10,1.9c2.7,1.3,4.8,2.8,6.4,4.4c1.6,1.7,2.8,3.1,3.5,4.3h0.7v-37.1h13.7v91.2h-13.7v-9.5h-0.7
		c-0.7,1.2-1.9,2.6-3.5,4.3c-1.6,1.7-3.7,3.2-6.4,4.4C1830.2,412.2,1826.9,412.9,1822.9,412.9z M1825.9,401.5c3.9,0,7.2-1.1,9.8-3.2
		c2.6-2.1,4.6-4.8,5.9-8.1c1.3-3.3,2-6.7,2-10.3s-0.7-7-2-10.3c-1.3-3.3-3.3-6-5.9-8.1c-2.6-2.1-5.9-3.2-9.8-3.2
		c-3.9,0-7.2,1.1-9.8,3.2c-2.6,2.1-4.6,4.8-5.9,8.1c-1.3,3.3-2,6.7-2,10.3s0.7,7,2,10.3c1.3,3.3,3.3,6,5.9,8.1
		C1818.7,400.4,1821.9,401.5,1825.9,401.5z"/>
	<path class="st3" d="M1906.3,412.9c-5.4,0-10-0.9-13.9-2.8c-3.9-1.9-7.1-4.4-9.6-7.6c-2.5-3.2-4.4-6.7-5.6-10.6
		c-1.2-3.9-1.9-7.9-1.9-12c0-4,0.6-8,1.8-11.9c1.2-3.9,3-7.5,5.5-10.7c2.5-3.2,5.6-5.7,9.5-7.6c3.8-1.9,8.4-2.8,13.6-2.8
		c5.6,0,10.5,1.3,14.8,3.8c4.3,2.5,7.6,6.2,10.1,11.2c2.4,4.9,3.7,11,3.7,18.3v3.7h-45.1c0.3,4.9,2,9.1,4.9,12.6
		c3,3.5,7,5.3,12.2,5.3c3,0,5.4-0.5,7.3-1.5c1.9-1,3.4-2.1,4.4-3.4c1-1.3,2-2.9,2.9-4.8h12.7c-0.8,2.8-1.7,5.2-2.8,7.3
		c-1.1,2.1-2.6,4.2-4.6,6.2c-2,2.1-4.6,3.8-7.9,5.2C1915,412.2,1911,412.9,1906.3,412.9z M1889.2,374.2h31.8c-0.3-5.6-2-9.7-5-12.4
		c-3-2.6-6.5-4-10.5-4c-4.5,0-8.2,1.5-11.2,4.4C1891.4,365.2,1889.7,369.2,1889.2,374.2z"/>
	<path class="st3" d="M1951.4,411.7v-63.6h13.7v8.4h0.5c1.2-2.5,3.1-4.7,5.7-6.7c2.6-2,6.4-2.9,11.3-2.9c1.5,0,3.4,0.2,5.5,0.5v13.2
		c-2.4-0.3-4.4-0.5-5.9-0.5c-5.6,0-9.9,1.6-12.8,4.7c-2.9,3.2-4.4,8.3-4.4,15.3v31.6H1951.4z"/>
</g>
</svg>
